<svg viewBox="0 0 512 512" xmlns="http://www.w3.org/2000/svg" xmlns:xlink="http://www.w3.org/1999/xlink"><linearGradient id="linear-gradient" gradientUnits="userSpaceOnUse" x1="74.98" x2="437.02" y1="74.98" y2="437.02"><stop offset="0" stop-color="#01f0fe"/><stop offset="1" stop-color="#4dadfe"/></linearGradient><linearGradient id="linear-gradient-2" gradientUnits="userSpaceOnUse" x1="331.63" x2="519.15" y1="117.28" y2="304.81"><stop offset="0" stop-color="#2391b8"/><stop offset="1" stop-color="#2391b8" stop-opacity="0"/></linearGradient><linearGradient id="linear-gradient-3" x1="123.94" x2="418.47" xlink:href="#linear-gradient-2" y1="161.04" y2="455.57"/><g id="Layer_2" data-name="Layer 2"><g id="stroke_copy_5" data-name="stroke copy 5"><g id="_144" data-name="144"><circle id="background" cx="256" cy="256" fill="url(#linear-gradient)" r="256"/><path d="m511.77 267a255.78 255.78 0 0 1 -7.85 53l-187.52-187.49 52.66-8.26z" fill="url(#linear-gradient-2)"/><path d="m494 350.41c-33.36 84-109.94 146.22-202.31 159.12l-115-114.95 17.57-47.09-53.26-53.36 2.19-58.27 77.08 77.14 37.29-3.77-127.73-127.76c5.43-64.2 63.14-63.93 63.14-63.93l85.49 85.46 9.67-3.86 78 78 16.1-38.55z" fill="url(#linear-gradient-3)"/><g fill="#fff"><path d="m255.86 301.72a84.19 84.19 0 0 0 -84.1 84.1 10.2 10.2 0 0 0 10.24 10.18h147.77a10.19 10.19 0 0 0 10.23-10.18 84.19 84.19 0 0 0 -84.14-84.1zm-62.86 73.9a63.72 63.72 0 0 1 125.79 0z"/><path d="m255.86 273a44 44 0 1 0 -44-44 44.05 44.05 0 0 0 44 44zm0-67.61a23.61 23.61 0 1 1 -23.61 23.61 23.63 23.63 0 0 1 23.61-23.58z"/><path d="m138 185.57a10.2 10.2 0 0 0 10.2-10.2v-20.23a18.77 18.77 0 0 1 18.74-18.74h20.69a10.2 10.2 0 1 0 0-20.39h-20.71a39.17 39.17 0 0 0 -39.13 39.13v20.23a10.2 10.2 0 0 0 10.21 10.2z"/><path d="m345.08 116h-20.69a10.2 10.2 0 1 0 0 20.39h20.69a18.77 18.77 0 0 1 18.74 18.74v20.23a10.2 10.2 0 1 0 20.39 0v-20.22a39.17 39.17 0 0 0 -39.13-39.14z"/><path d="m374 234.44a10.2 10.2 0 0 0 -10.2 10.2v20.23a18.77 18.77 0 0 1 -18.74 18.74h-20.67a10.2 10.2 0 1 0 0 20.39h20.69a39.18 39.18 0 0 0 39.13-39.13v-20.23a10.2 10.2 0 0 0 -10.21-10.2z"/><path d="m197.81 293.81a10.2 10.2 0 0 0 -10.2-10.2h-20.69a18.77 18.77 0 0 1 -18.74-18.74v-20.23a10.2 10.2 0 1 0 -20.39 0v20.23a39.18 39.18 0 0 0 39.13 39.13h20.69a10.2 10.2 0 0 0 10.2-10.19z"/></g></g></g></g></svg>