<svg id="Layer_1" data-name="Layer 1" xmlns="http://www.w3.org/2000/svg" viewBox="0 0 488.21 488.22">
  <defs>
    <style>
      .cls-1 {
        fill: #fff;
      }
    </style>
  </defs>
  <g>
    <path class="cls-1" d="M149.21,361.68a17.55,17.55,0,0,1-17.41-15.42H97.09v56.65H221.28V339.57c0-23.62-18.62-24.51-19.42-24.53H97.09v26.85H131.8a17.58,17.58,0,1,1,17.41,19.79Z" transform="translate(-5.9 -5.89)"/>
    <path class="cls-1" d="M494.1,132v-13.1H442.22V86.5A28.72,28.72,0,0,0,413.5,57.77H381.06V5.89H368V57.77H339.54V5.89h-13.1V57.77H298.05V5.89H285V57.77H256.54V5.89h-13.1V57.77H215V5.89H201.93V57.77H173.55V5.89H160.44V57.77H132V5.89H118.93V57.77H86.5A28.72,28.72,0,0,0,57.78,86.5v32.44H5.9V132H57.78v28.4H5.9v13.11H57.78v28.39H5.9v13.11H57.78v28.4H5.9v13.1H57.78V285H5.9v13.1H57.78v28.4H5.9v13.11H57.78V368H5.9v13.11H57.78v32.44A28.72,28.72,0,0,0,86.5,442.23h32.43v51.88H132V442.23h28.4v51.88h13.11V442.23h28.38v51.88H215V442.23h28.4v51.88h13.1V442.23H285v51.88h13.1V442.23h28.39v51.88h13.1V442.23H368v51.88h13.11V442.23H413.5a28.72,28.72,0,0,0,28.72-28.72V381.07H494.1V368H442.22V339.57H494.1V326.46H442.22v-28.4H494.1V285H442.22V256.55H494.1v-13.1H442.22v-28.4H494.1V201.94H442.22V173.55H494.1V160.44H442.22V132ZM411.64,411.65H88.35V88.35H411.64Z" transform="translate(-5.9 -5.89)"/>
    <path class="cls-1" d="M318.7,176.83a17.61,17.61,0,1,0,17.4,19.79h66.8v-4.37H336.1A17.54,17.54,0,0,0,318.7,176.83Z" transform="translate(-5.9 -5.89)"/>
    <path class="cls-1" d="M131.8,341.89H97.09v4.37H131.8a17.62,17.62,0,1,0,0-4.37Z" transform="translate(-5.9 -5.89)"/>
    <path class="cls-1" d="M245.38,230.34c-8.22,8-20.65,7.91-20.83,7.87H97.09v4.37H224.78c2.09,0,14.68-.37,23.63-9.09,5.8-5.67,8.75-13.59,8.75-23.52V184a17.62,17.62,0,1,0-4.36,0v26C252.8,218.67,250.3,225.52,245.38,230.34Z" transform="translate(-5.9 -5.89)"/>
    <path class="cls-1" d="M97.09,280.72v4.37H248.65a19.39,19.39,0,0,1-.22-2.18,19.8,19.8,0,0,1,.22-2.19Z" transform="translate(-5.9 -5.89)"/>
    <path class="cls-1" d="M225.64,402.91V339.57c0-27.79-23.39-28.89-23.71-28.9H97.09V315H201.86c.8,0,19.42.91,19.42,24.53v63.34Z" transform="translate(-5.9 -5.89)"/>
    <path class="cls-1" d="M321.8,402.91h4.38V343.85a17.63,17.63,0,0,1-2.2.22,17.89,17.89,0,0,1-2.18-.22Z" transform="translate(-5.9 -5.89)"/>
    <rect class="cls-1" x="287.78" y="350.2" width="4.37" height="46.82"/>
    <rect class="cls-1" x="342.07" y="362.07" width="4.36" height="34.96"/>
    <rect class="cls-1" x="348.04" y="140.87" width="48.96" height="4.37"/>
    <path class="cls-1" d="M97.09,140.92v4.37H163.9a11,11,0,0,1,0-4.37Z" transform="translate(-5.9 -5.89)"/>
    <rect class="cls-1" x="91.19" y="167.66" width="52.12" height="4.36"/>
    <path class="cls-1" d="M411.64,411.65V88.35H88.35v323.3ZM97.09,346.26V97.1H402.9V402.91H97.09Z" transform="translate(-5.9 -5.89)"/>
    <path class="cls-1" d="M163.9,140.92a11,11,0,0,0,0,4.37,17.62,17.62,0,1,0,0-4.37Z" transform="translate(-5.9 -5.89)"/>
    <path class="cls-1" d="M248.65,280.72a19.8,19.8,0,0,0-.22,2.19,19.39,19.39,0,0,0,.22,2.18,17.62,17.62,0,1,0,0-4.37Z" transform="translate(-5.9 -5.89)"/>
    <path class="cls-1" d="M306.37,326.46a17.56,17.56,0,0,0,15.43,17.39,17.89,17.89,0,0,0,2.18.22,17.62,17.62,0,1,0-17.61-17.61Z" transform="translate(-5.9 -5.89)"/>
  </g>
</svg>
