<svg id="Layer_1" enable-background="new 0 0 512 512" viewBox="0 0 512 512" xmlns="http://www.w3.org/2000/svg"><g clip-rule="evenodd" fill-rule="evenodd"><path d="m256 4c69.586 0 132.587 28.207 178.19 73.81s73.81 108.604 73.81 178.19-28.207 132.587-73.81 178.19-108.604 73.81-178.19 73.81-132.587-28.207-178.19-73.81-73.81-108.604-73.81-178.19 28.207-132.587 73.81-178.19 108.604-73.81 178.19-73.81zm161.221 90.779c-41.259-41.259-98.26-66.779-161.221-66.779s-119.962 25.52-161.221 66.779-66.779 98.259-66.779 161.221c0 62.961 25.52 119.962 66.779 161.221s98.26 66.779 161.221 66.779 119.962-25.52 161.221-66.779 66.779-98.26 66.779-161.221c0-62.962-25.52-119.962-66.779-161.221z" fill="#606669"/><path d="m156 156h200v200h-200z" fill="#eb423f"/></g></svg>